<svg width="1345" height="474" viewBox="0 0 1345 474" fill="none" xmlns="http://www.w3.org/2000/svg">
<circle cx="237" cy="237" r="235" stroke="#1E1E1E" stroke-width="4"/>
<circle cx="249" cy="236" r="223" stroke="#1E1E1E" stroke-width="4"/>
<path d="M472 236C472 353.641 376.856 449 259.5 449C142.144 449 47 353.641 47 236C47 118.359 142.144 23 259.5 23C376.856 23 472 118.359 472 236Z" stroke="#1E1E1E" stroke-width="4"/>
<circle cx="274" cy="237" r="198" stroke="#1E1E1E" stroke-width="4"/>
<circle cx="284" cy="236" r="188" stroke="#1E1E1E" stroke-width="4"/>
<mask id="path-6-outside-1_38_38" maskUnits="userSpaceOnUse" x="134" y="154" width="1202" height="150" fill="black">
<rect fill="white" x="134" y="154" width="1202" height="150"/>
<path d="M270.385 254.91C270.385 259.422 269.799 263.494 268.627 267.127C267.514 270.701 266.02 273.865 264.145 276.619C262.27 279.373 260.072 281.717 257.553 283.65C255.033 285.584 252.426 287.166 249.73 288.396C247.035 289.627 244.281 290.535 241.469 291.121C238.715 291.707 236.107 292 233.646 292H145.492V269.148H233.646C238.041 269.148 241.439 267.859 243.842 265.281C246.303 262.703 247.533 259.246 247.533 254.91C247.533 252.801 247.211 250.867 246.566 249.109C245.922 247.352 244.984 245.828 243.754 244.539C242.582 243.25 241.117 242.254 239.359 241.551C237.66 240.848 235.756 240.496 233.646 240.496H181.088C177.396 240.496 173.412 239.852 169.135 238.562C164.857 237.215 160.873 235.076 157.182 232.146C153.549 229.217 150.502 225.379 148.041 220.633C145.639 215.887 144.438 210.086 144.438 203.23C144.438 196.375 145.639 190.604 148.041 185.916C150.502 181.17 153.549 177.332 157.182 174.402C160.873 171.414 164.857 169.275 169.135 167.986C173.412 166.639 177.396 165.965 181.088 165.965H258.871V188.816H181.088C176.752 188.816 173.354 190.135 170.893 192.771C168.49 195.408 167.289 198.895 167.289 203.23C167.289 207.625 168.49 211.111 170.893 213.689C173.354 216.209 176.752 217.469 181.088 217.469H233.646H233.822C236.283 217.527 238.891 217.879 241.645 218.523C244.398 219.109 247.123 220.047 249.818 221.336C252.572 222.625 255.18 224.266 257.641 226.258C260.102 228.191 262.27 230.535 264.145 233.289C266.078 236.043 267.602 239.207 268.715 242.781C269.828 246.355 270.385 250.398 270.385 254.91ZM392.992 240.496H320.834V217.469H392.992V240.496ZM403.275 292H320.834C317.67 292 314.213 291.443 310.463 290.33C306.713 289.217 303.227 287.4 300.004 284.881C296.84 282.303 294.174 278.992 292.006 274.949C289.896 270.848 288.842 265.838 288.842 259.92V177.479C288.842 175.896 289.135 174.402 289.721 172.996C290.307 171.59 291.098 170.359 292.094 169.305C293.148 168.25 294.379 167.43 295.785 166.844C297.191 166.258 298.715 165.965 300.355 165.965H403.275V188.816H311.693V259.92C311.693 262.908 312.484 265.193 314.066 266.775C315.648 268.357 317.963 269.148 321.01 269.148H403.275V292ZM551.371 282.244C551.371 283.885 551.049 285.408 550.404 286.814C549.818 288.221 548.998 289.451 547.943 290.506C546.947 291.502 545.746 292.293 544.34 292.879C542.934 293.465 541.439 293.758 539.857 293.758C538.451 293.758 537.016 293.494 535.551 292.967C534.145 292.439 532.885 291.59 531.771 290.418L448.275 203.23V292H425.424V175.721C425.424 173.377 426.068 171.268 427.357 169.393C428.705 167.459 430.404 166.023 432.455 165.086C434.623 164.207 436.85 164.002 439.135 164.471C441.42 164.881 443.383 165.936 445.023 167.635L528.52 254.734V165.965H551.371V282.244ZM699.115 254.91C699.115 259.422 698.529 263.494 697.357 267.127C696.244 270.701 694.75 273.865 692.875 276.619C691 279.373 688.803 281.717 686.283 283.65C683.764 285.584 681.156 287.166 678.461 288.396C675.766 289.627 673.012 290.535 670.199 291.121C667.445 291.707 664.838 292 662.377 292H574.223V269.148H662.377C666.771 269.148 670.17 267.859 672.572 265.281C675.033 262.703 676.264 259.246 676.264 254.91C676.264 252.801 675.941 250.867 675.297 249.109C674.652 247.352 673.715 245.828 672.484 244.539C671.312 243.25 669.848 242.254 668.09 241.551C666.391 240.848 664.486 240.496 662.377 240.496H609.818C606.127 240.496 602.143 239.852 597.865 238.562C593.588 237.215 589.604 235.076 585.912 232.146C582.279 229.217 579.232 225.379 576.771 220.633C574.369 215.887 573.168 210.086 573.168 203.23C573.168 196.375 574.369 190.604 576.771 185.916C579.232 181.17 582.279 177.332 585.912 174.402C589.604 171.414 593.588 169.275 597.865 167.986C602.143 166.639 606.127 165.965 609.818 165.965H687.602V188.816H609.818C605.482 188.816 602.084 190.135 599.623 192.771C597.221 195.408 596.02 198.895 596.02 203.23C596.02 207.625 597.221 211.111 599.623 213.689C602.084 216.209 605.482 217.469 609.818 217.469H662.377H662.553C665.014 217.527 667.621 217.879 670.375 218.523C673.129 219.109 675.854 220.047 678.549 221.336C681.303 222.625 683.91 224.266 686.371 226.258C688.832 228.191 691 230.535 692.875 233.289C694.809 236.043 696.332 239.207 697.445 242.781C698.559 246.355 699.115 250.398 699.115 254.91ZM821.723 240.496H749.564V217.469H821.723V240.496ZM832.006 292H749.564C746.4 292 742.943 291.443 739.193 290.33C735.443 289.217 731.957 287.4 728.734 284.881C725.57 282.303 722.904 278.992 720.736 274.949C718.627 270.848 717.572 265.838 717.572 259.92V177.479C717.572 175.896 717.865 174.402 718.451 172.996C719.037 171.59 719.828 170.359 720.824 169.305C721.879 168.25 723.109 167.43 724.516 166.844C725.922 166.258 727.445 165.965 729.086 165.965H832.006V188.816H740.424V259.92C740.424 262.908 741.215 265.193 742.797 266.775C744.379 268.357 746.693 269.148 749.74 269.148H832.006V292Z"/>
<path d="M977.641 280.486C977.641 282.127 977.348 283.65 976.762 285.057C976.176 286.463 975.355 287.693 974.301 288.748C973.305 289.744 972.104 290.535 970.697 291.121C969.291 291.707 967.768 292 966.127 292H883.686C881.576 292 879.291 291.766 876.83 291.297C874.428 290.77 872.025 289.979 869.623 288.924C867.279 287.869 865.023 286.521 862.855 284.881C860.688 283.182 858.754 281.16 857.055 278.816C855.414 276.414 854.096 273.66 853.1 270.555C852.104 267.391 851.605 263.846 851.605 259.92V198.045C851.605 195.936 851.84 193.68 852.309 191.277C852.836 188.816 853.627 186.414 854.682 184.07C855.736 181.668 857.113 179.383 858.812 177.215C860.512 175.047 862.533 173.143 864.877 171.502C867.279 169.803 870.033 168.455 873.139 167.459C876.244 166.463 879.76 165.965 883.686 165.965H976.586V188.816H883.686C880.697 188.816 878.412 189.607 876.83 191.189C875.248 192.771 874.457 195.115 874.457 198.221V259.92C874.457 262.85 875.248 265.135 876.83 266.775C878.471 268.357 880.756 269.148 883.686 269.148H954.789V240.496H893.969V217.469H966.127C967.768 217.469 969.291 217.791 970.697 218.436C972.104 219.021 973.305 219.842 974.301 220.896C975.355 221.951 976.176 223.182 976.762 224.588C977.348 225.936 977.641 227.4 977.641 228.982V280.486ZM1127.41 208.328C1127.41 213.543 1126.76 218.201 1125.47 222.303C1124.18 226.404 1122.43 230.037 1120.2 233.201C1118.03 236.307 1115.51 238.973 1112.64 241.199C1109.77 243.426 1106.75 245.271 1103.59 246.736C1100.48 248.143 1097.32 249.168 1094.1 249.812C1090.93 250.457 1087.94 250.779 1085.13 250.779L1132.86 292H1097.52L1049.89 250.779H1033.45V227.928H1085.13C1088 227.693 1090.61 227.107 1092.95 226.17C1095.36 225.174 1097.41 223.855 1099.11 222.215C1100.86 220.574 1102.21 218.611 1103.15 216.326C1104.09 213.982 1104.55 211.316 1104.55 208.328V193.914C1104.55 192.625 1104.38 191.658 1104.03 191.014C1103.73 190.311 1103.32 189.812 1102.8 189.52C1102.33 189.168 1101.8 188.963 1101.21 188.904C1100.69 188.846 1100.19 188.816 1099.72 188.816H1024.31V292H1001.46V177.479C1001.46 175.896 1001.75 174.402 1002.34 172.996C1002.92 171.59 1003.71 170.359 1004.71 169.305C1005.77 168.25 1007 167.43 1008.4 166.844C1009.81 166.258 1011.33 165.965 1012.97 165.965H1099.72C1104.82 165.965 1109.12 166.902 1112.64 168.777C1116.16 170.594 1119 172.908 1121.17 175.721C1123.39 178.475 1124.97 181.463 1125.91 184.686C1126.91 187.908 1127.41 190.926 1127.41 193.738V208.328ZM1173.37 292H1150.52V165.965H1173.37V292ZM1325.86 239.266C1325.86 246.941 1324.52 254.002 1321.82 260.447C1319.18 266.893 1315.52 272.459 1310.83 277.146C1306.15 281.775 1300.58 285.408 1294.13 288.045C1287.69 290.682 1280.69 292 1273.13 292H1211.43C1209.79 292 1208.27 291.707 1206.86 291.121C1205.45 290.535 1204.22 289.744 1203.17 288.748C1202.17 287.693 1201.38 286.463 1200.79 285.057C1200.21 283.65 1199.92 282.127 1199.92 280.486V177.479C1199.92 175.896 1200.21 174.402 1200.79 172.996C1201.38 171.59 1202.17 170.359 1203.17 169.305C1204.22 168.25 1205.45 167.43 1206.86 166.844C1208.27 166.258 1209.79 165.965 1211.43 165.965H1273.13C1280.69 165.965 1287.69 167.283 1294.13 169.92C1300.58 172.557 1306.15 176.219 1310.83 180.906C1315.52 185.535 1319.18 191.102 1321.82 197.605C1324.52 204.051 1325.86 211.082 1325.86 218.699V239.266ZM1303.01 218.699C1303.01 214.246 1302.28 210.174 1300.81 206.482C1299.41 202.791 1297.39 199.656 1294.75 197.078C1292.11 194.441 1288.95 192.42 1285.26 191.014C1281.62 189.549 1277.58 188.816 1273.13 188.816H1222.77V269.148H1273.13C1277.58 269.148 1281.62 268.445 1285.26 267.039C1288.95 265.574 1292.11 263.553 1294.75 260.975C1297.39 258.338 1299.41 255.203 1300.81 251.57C1302.28 247.879 1303.01 243.777 1303.01 239.266V218.699Z"/>
</mask>
<path d="M270.385 254.91C270.385 259.422 269.799 263.494 268.627 267.127C267.514 270.701 266.02 273.865 264.145 276.619C262.27 279.373 260.072 281.717 257.553 283.65C255.033 285.584 252.426 287.166 249.73 288.396C247.035 289.627 244.281 290.535 241.469 291.121C238.715 291.707 236.107 292 233.646 292H145.492V269.148H233.646C238.041 269.148 241.439 267.859 243.842 265.281C246.303 262.703 247.533 259.246 247.533 254.91C247.533 252.801 247.211 250.867 246.566 249.109C245.922 247.352 244.984 245.828 243.754 244.539C242.582 243.25 241.117 242.254 239.359 241.551C237.66 240.848 235.756 240.496 233.646 240.496H181.088C177.396 240.496 173.412 239.852 169.135 238.562C164.857 237.215 160.873 235.076 157.182 232.146C153.549 229.217 150.502 225.379 148.041 220.633C145.639 215.887 144.438 210.086 144.438 203.23C144.438 196.375 145.639 190.604 148.041 185.916C150.502 181.17 153.549 177.332 157.182 174.402C160.873 171.414 164.857 169.275 169.135 167.986C173.412 166.639 177.396 165.965 181.088 165.965H258.871V188.816H181.088C176.752 188.816 173.354 190.135 170.893 192.771C168.49 195.408 167.289 198.895 167.289 203.23C167.289 207.625 168.49 211.111 170.893 213.689C173.354 216.209 176.752 217.469 181.088 217.469H233.646H233.822C236.283 217.527 238.891 217.879 241.645 218.523C244.398 219.109 247.123 220.047 249.818 221.336C252.572 222.625 255.18 224.266 257.641 226.258C260.102 228.191 262.27 230.535 264.145 233.289C266.078 236.043 267.602 239.207 268.715 242.781C269.828 246.355 270.385 250.398 270.385 254.91ZM392.992 240.496H320.834V217.469H392.992V240.496ZM403.275 292H320.834C317.67 292 314.213 291.443 310.463 290.33C306.713 289.217 303.227 287.4 300.004 284.881C296.84 282.303 294.174 278.992 292.006 274.949C289.896 270.848 288.842 265.838 288.842 259.92V177.479C288.842 175.896 289.135 174.402 289.721 172.996C290.307 171.59 291.098 170.359 292.094 169.305C293.148 168.25 294.379 167.43 295.785 166.844C297.191 166.258 298.715 165.965 300.355 165.965H403.275V188.816H311.693V259.92C311.693 262.908 312.484 265.193 314.066 266.775C315.648 268.357 317.963 269.148 321.01 269.148H403.275V292ZM551.371 282.244C551.371 283.885 551.049 285.408 550.404 286.814C549.818 288.221 548.998 289.451 547.943 290.506C546.947 291.502 545.746 292.293 544.34 292.879C542.934 293.465 541.439 293.758 539.857 293.758C538.451 293.758 537.016 293.494 535.551 292.967C534.145 292.439 532.885 291.59 531.771 290.418L448.275 203.23V292H425.424V175.721C425.424 173.377 426.068 171.268 427.357 169.393C428.705 167.459 430.404 166.023 432.455 165.086C434.623 164.207 436.85 164.002 439.135 164.471C441.42 164.881 443.383 165.936 445.023 167.635L528.52 254.734V165.965H551.371V282.244ZM699.115 254.91C699.115 259.422 698.529 263.494 697.357 267.127C696.244 270.701 694.75 273.865 692.875 276.619C691 279.373 688.803 281.717 686.283 283.65C683.764 285.584 681.156 287.166 678.461 288.396C675.766 289.627 673.012 290.535 670.199 291.121C667.445 291.707 664.838 292 662.377 292H574.223V269.148H662.377C666.771 269.148 670.17 267.859 672.572 265.281C675.033 262.703 676.264 259.246 676.264 254.91C676.264 252.801 675.941 250.867 675.297 249.109C674.652 247.352 673.715 245.828 672.484 244.539C671.312 243.25 669.848 242.254 668.09 241.551C666.391 240.848 664.486 240.496 662.377 240.496H609.818C606.127 240.496 602.143 239.852 597.865 238.562C593.588 237.215 589.604 235.076 585.912 232.146C582.279 229.217 579.232 225.379 576.771 220.633C574.369 215.887 573.168 210.086 573.168 203.23C573.168 196.375 574.369 190.604 576.771 185.916C579.232 181.17 582.279 177.332 585.912 174.402C589.604 171.414 593.588 169.275 597.865 167.986C602.143 166.639 606.127 165.965 609.818 165.965H687.602V188.816H609.818C605.482 188.816 602.084 190.135 599.623 192.771C597.221 195.408 596.02 198.895 596.02 203.23C596.02 207.625 597.221 211.111 599.623 213.689C602.084 216.209 605.482 217.469 609.818 217.469H662.377H662.553C665.014 217.527 667.621 217.879 670.375 218.523C673.129 219.109 675.854 220.047 678.549 221.336C681.303 222.625 683.91 224.266 686.371 226.258C688.832 228.191 691 230.535 692.875 233.289C694.809 236.043 696.332 239.207 697.445 242.781C698.559 246.355 699.115 250.398 699.115 254.91ZM821.723 240.496H749.564V217.469H821.723V240.496ZM832.006 292H749.564C746.4 292 742.943 291.443 739.193 290.33C735.443 289.217 731.957 287.4 728.734 284.881C725.57 282.303 722.904 278.992 720.736 274.949C718.627 270.848 717.572 265.838 717.572 259.92V177.479C717.572 175.896 717.865 174.402 718.451 172.996C719.037 171.59 719.828 170.359 720.824 169.305C721.879 168.25 723.109 167.43 724.516 166.844C725.922 166.258 727.445 165.965 729.086 165.965H832.006V188.816H740.424V259.92C740.424 262.908 741.215 265.193 742.797 266.775C744.379 268.357 746.693 269.148 749.74 269.148H832.006V292Z" fill="#1E1E1E"/>
<path d="M977.641 280.486C977.641 282.127 977.348 283.65 976.762 285.057C976.176 286.463 975.355 287.693 974.301 288.748C973.305 289.744 972.104 290.535 970.697 291.121C969.291 291.707 967.768 292 966.127 292H883.686C881.576 292 879.291 291.766 876.83 291.297C874.428 290.77 872.025 289.979 869.623 288.924C867.279 287.869 865.023 286.521 862.855 284.881C860.688 283.182 858.754 281.16 857.055 278.816C855.414 276.414 854.096 273.66 853.1 270.555C852.104 267.391 851.605 263.846 851.605 259.92V198.045C851.605 195.936 851.84 193.68 852.309 191.277C852.836 188.816 853.627 186.414 854.682 184.07C855.736 181.668 857.113 179.383 858.812 177.215C860.512 175.047 862.533 173.143 864.877 171.502C867.279 169.803 870.033 168.455 873.139 167.459C876.244 166.463 879.76 165.965 883.686 165.965H976.586V188.816H883.686C880.697 188.816 878.412 189.607 876.83 191.189C875.248 192.771 874.457 195.115 874.457 198.221V259.92C874.457 262.85 875.248 265.135 876.83 266.775C878.471 268.357 880.756 269.148 883.686 269.148H954.789V240.496H893.969V217.469H966.127C967.768 217.469 969.291 217.791 970.697 218.436C972.104 219.021 973.305 219.842 974.301 220.896C975.355 221.951 976.176 223.182 976.762 224.588C977.348 225.936 977.641 227.4 977.641 228.982V280.486ZM1127.41 208.328C1127.41 213.543 1126.76 218.201 1125.47 222.303C1124.18 226.404 1122.43 230.037 1120.2 233.201C1118.03 236.307 1115.51 238.973 1112.64 241.199C1109.77 243.426 1106.75 245.271 1103.59 246.736C1100.48 248.143 1097.32 249.168 1094.1 249.812C1090.93 250.457 1087.94 250.779 1085.13 250.779L1132.86 292H1097.52L1049.89 250.779H1033.45V227.928H1085.13C1088 227.693 1090.61 227.107 1092.95 226.17C1095.36 225.174 1097.41 223.855 1099.11 222.215C1100.86 220.574 1102.21 218.611 1103.15 216.326C1104.09 213.982 1104.55 211.316 1104.55 208.328V193.914C1104.55 192.625 1104.38 191.658 1104.03 191.014C1103.73 190.311 1103.32 189.812 1102.8 189.52C1102.33 189.168 1101.8 188.963 1101.21 188.904C1100.69 188.846 1100.19 188.816 1099.72 188.816H1024.31V292H1001.46V177.479C1001.46 175.896 1001.75 174.402 1002.34 172.996C1002.92 171.59 1003.71 170.359 1004.71 169.305C1005.77 168.25 1007 167.43 1008.4 166.844C1009.81 166.258 1011.33 165.965 1012.97 165.965H1099.72C1104.82 165.965 1109.12 166.902 1112.64 168.777C1116.16 170.594 1119 172.908 1121.17 175.721C1123.39 178.475 1124.97 181.463 1125.91 184.686C1126.91 187.908 1127.41 190.926 1127.41 193.738V208.328ZM1173.37 292H1150.52V165.965H1173.37V292ZM1325.86 239.266C1325.86 246.941 1324.52 254.002 1321.82 260.447C1319.18 266.893 1315.52 272.459 1310.83 277.146C1306.15 281.775 1300.58 285.408 1294.13 288.045C1287.69 290.682 1280.69 292 1273.13 292H1211.43C1209.79 292 1208.27 291.707 1206.86 291.121C1205.45 290.535 1204.22 289.744 1203.17 288.748C1202.17 287.693 1201.38 286.463 1200.79 285.057C1200.21 283.65 1199.92 282.127 1199.92 280.486V177.479C1199.92 175.896 1200.21 174.402 1200.79 172.996C1201.38 171.59 1202.17 170.359 1203.17 169.305C1204.22 168.25 1205.45 167.43 1206.86 166.844C1208.27 166.258 1209.79 165.965 1211.43 165.965H1273.13C1280.69 165.965 1287.69 167.283 1294.13 169.92C1300.58 172.557 1306.15 176.219 1310.83 180.906C1315.52 185.535 1319.18 191.102 1321.82 197.605C1324.52 204.051 1325.86 211.082 1325.86 218.699V239.266ZM1303.01 218.699C1303.01 214.246 1302.28 210.174 1300.81 206.482C1299.41 202.791 1297.39 199.656 1294.75 197.078C1292.11 194.441 1288.95 192.42 1285.26 191.014C1281.62 189.549 1277.58 188.816 1273.13 188.816H1222.77V269.148H1273.13C1277.58 269.148 1281.62 268.445 1285.26 267.039C1288.95 265.574 1292.11 263.553 1294.75 260.975C1297.39 258.338 1299.41 255.203 1300.81 251.57C1302.28 247.879 1303.01 243.777 1303.01 239.266V218.699Z" fill="#059669"/>
<path d="M268.627 267.127L259.11 264.057L259.094 264.105L259.079 264.153L268.627 267.127ZM241.469 291.121L239.429 281.331L239.408 281.336L239.388 281.34L241.469 291.121ZM145.492 292H135.492V302H145.492V292ZM145.492 269.148V259.148H135.492V269.148H145.492ZM243.842 265.281L236.608 258.376L236.567 258.42L236.526 258.464L243.842 265.281ZM243.754 244.539L236.355 251.266L236.436 251.356L236.52 251.444L243.754 244.539ZM239.359 241.551L235.536 250.791L235.591 250.814L235.645 250.836L239.359 241.551ZM169.135 238.562L166.13 248.1L166.189 248.119L166.249 248.137L169.135 238.562ZM157.182 232.146L150.904 239.931L150.934 239.955L150.965 239.979L157.182 232.146ZM148.041 220.633L139.119 225.149L139.141 225.193L139.163 225.236L148.041 220.633ZM148.041 185.916L139.163 181.313L139.153 181.334L139.142 181.355L148.041 185.916ZM157.182 174.402L163.459 182.186L163.466 182.181L163.474 182.175L157.182 174.402ZM169.135 167.986L172.02 177.561L172.08 177.543L172.14 177.524L169.135 167.986ZM258.871 165.965H268.871V155.965H258.871V165.965ZM258.871 188.816V198.816H268.871V188.816H258.871ZM170.893 192.771L163.582 185.948L163.541 185.992L163.501 186.037L170.893 192.771ZM170.893 213.689L163.576 220.507L163.657 220.593L163.739 220.677L170.893 213.689ZM233.822 217.469L234.06 207.472L233.941 207.469H233.822V217.469ZM241.645 218.523L239.366 228.26L239.464 228.283L239.563 228.304L241.645 218.523ZM249.818 221.336L245.504 230.357L245.541 230.375L245.579 230.393L249.818 221.336ZM257.641 226.258L251.349 234.03L251.405 234.076L251.462 234.121L257.641 226.258ZM264.145 233.289L255.879 238.917L255.919 238.976L255.96 239.035L264.145 233.289ZM260.385 254.91C260.385 258.564 259.91 261.578 259.11 264.057L278.144 270.197C279.688 265.411 280.385 260.28 280.385 254.91H260.385ZM259.079 264.153C258.224 266.899 257.134 269.148 255.879 270.991L272.411 282.247C274.905 278.583 276.803 274.503 278.175 270.101L259.079 264.153ZM255.879 270.991C254.573 272.909 253.099 274.463 251.465 275.717L263.641 291.583C267.045 288.971 269.966 285.837 272.411 282.247L255.879 270.991ZM251.465 275.717C249.501 277.224 247.539 278.404 245.578 279.3L253.883 297.493C257.313 295.928 260.565 293.944 263.641 291.583L251.465 275.717ZM245.578 279.3C243.538 280.231 241.491 280.902 239.429 281.331L243.508 300.911C247.071 300.169 250.533 299.023 253.883 297.493L245.578 279.3ZM239.388 281.34C237.222 281.801 235.316 282 233.646 282V302C236.898 302 240.208 301.613 243.55 300.902L239.388 281.34ZM233.646 282H145.492V302H233.646V282ZM155.492 292V269.148H135.492V292H155.492ZM145.492 279.148H233.646V259.148H145.492V279.148ZM233.646 279.148C240.083 279.148 246.416 277.187 251.158 272.099L236.526 258.464C236.462 258.532 235.999 259.148 233.646 259.148V279.148ZM251.075 272.186C255.681 267.361 257.533 261.229 257.533 254.91H237.533C237.533 257.264 236.925 258.045 236.608 258.376L251.075 272.186ZM257.533 254.91C257.533 251.774 257.052 248.658 255.955 245.667L237.178 252.552C237.37 253.077 237.533 253.828 237.533 254.91H257.533ZM255.955 245.667C254.862 242.686 253.214 239.967 250.987 237.634L236.52 251.444C236.754 251.689 236.982 252.017 237.178 252.552L255.955 245.667ZM251.153 237.812C248.876 235.308 246.113 233.482 243.073 232.266L235.645 250.836C236.121 251.026 236.288 251.192 236.355 251.266L251.153 237.812ZM243.183 232.311C240.106 231.038 236.877 230.496 233.646 230.496V250.496C234.635 250.496 235.214 250.658 235.536 250.791L243.183 232.311ZM233.646 230.496H181.088V250.496H233.646V230.496ZM181.088 230.496C178.554 230.496 175.551 230.052 172.02 228.988L166.249 248.137C171.273 249.651 176.239 250.496 181.088 250.496V230.496ZM172.14 229.025C169.087 228.063 166.182 226.523 163.398 224.314L150.965 239.979C155.564 243.63 160.628 246.367 166.13 248.1L172.14 229.025ZM163.459 224.362C161.05 222.419 158.835 219.725 156.919 216.03L139.163 225.236C142.169 231.033 146.048 236.014 150.904 239.931L163.459 224.362ZM156.963 216.117C155.444 213.115 154.438 208.955 154.438 203.23H134.438C134.438 211.216 135.833 218.658 139.119 225.149L156.963 216.117ZM154.438 203.23C154.438 197.499 155.446 193.392 156.94 190.477L139.142 181.355C135.831 187.815 134.438 195.251 134.438 203.23H154.438ZM156.919 190.519C158.835 186.824 161.05 184.13 163.459 182.186L150.904 166.618C146.048 170.534 142.169 175.516 139.163 181.313L156.919 190.519ZM163.474 182.175C166.222 179.95 169.061 178.453 172.02 177.561L166.249 158.412C160.653 160.098 155.525 162.878 150.89 166.63L163.474 182.175ZM172.14 177.524C175.646 176.419 178.607 175.965 181.088 175.965V155.965C176.186 155.965 171.178 156.858 166.13 158.449L172.14 177.524ZM181.088 175.965H258.871V155.965H181.088V175.965ZM248.871 165.965V188.816H268.871V165.965H248.871ZM258.871 178.816H181.088V198.816H258.871V178.816ZM181.088 178.816C174.586 178.816 168.312 180.881 163.582 185.948L178.203 199.595C178.396 199.389 178.918 198.816 181.088 198.816V178.816ZM163.501 186.037C159.075 190.894 157.289 196.968 157.289 203.23H177.289C177.289 200.821 177.905 199.923 178.285 199.506L163.501 186.037ZM157.289 203.23C157.289 209.501 159.05 215.649 163.576 220.507L178.209 206.872C177.93 206.574 177.289 205.749 177.289 203.23H157.289ZM163.739 220.677C168.499 225.551 174.722 227.469 181.088 227.469V207.469C178.782 207.469 178.208 206.867 178.046 206.702L163.739 220.677ZM181.088 227.469H233.646V207.469H181.088V227.469ZM233.646 227.469H233.822V207.469H233.646V227.469ZM233.584 227.466C235.265 227.506 237.184 227.75 239.366 228.26L243.923 208.787C240.597 208.008 237.301 207.549 234.06 207.472L233.584 227.466ZM239.563 228.304C241.5 228.717 243.477 229.388 245.504 230.357L254.133 212.315C250.769 210.706 247.297 209.502 243.726 208.742L239.563 228.304ZM245.579 230.393C247.569 231.325 249.491 232.527 251.349 234.03L263.933 218.485C260.868 216.005 257.575 213.925 254.058 212.279L245.579 230.393ZM251.462 234.121C253.066 235.381 254.543 236.956 255.879 238.917L272.411 227.661C269.996 224.114 267.137 221.002 263.819 218.395L251.462 234.121ZM255.96 239.035C257.236 240.852 258.328 243.06 259.167 245.755L278.262 239.807C276.875 235.354 274.92 231.234 272.329 227.543L255.96 239.035ZM259.167 245.755C259.927 248.193 260.385 251.207 260.385 254.91H280.385C280.385 249.59 279.73 244.518 278.262 239.807L259.167 245.755ZM392.992 240.496V250.496H402.992V240.496H392.992ZM320.834 240.496H310.834V250.496H320.834V240.496ZM320.834 217.469V207.469H310.834V217.469H320.834ZM392.992 217.469H402.992V207.469H392.992V217.469ZM403.275 292V302H413.275V292H403.275ZM300.004 284.881L293.687 292.633L293.765 292.697L293.845 292.759L300.004 284.881ZM292.006 274.949L283.113 279.523L283.152 279.599L283.193 279.675L292.006 274.949ZM292.094 169.305L285.023 162.234L284.922 162.335L284.824 162.438L292.094 169.305ZM403.275 165.965H413.275V155.965H403.275V165.965ZM403.275 188.816V198.816H413.275V188.816H403.275ZM311.693 188.816V178.816H301.693V188.816H311.693ZM403.275 269.148H413.275V259.148H403.275V269.148ZM392.992 230.496H320.834V250.496H392.992V230.496ZM330.834 240.496V217.469H310.834V240.496H330.834ZM320.834 227.469H392.992V207.469H320.834V227.469ZM382.992 217.469V240.496H402.992V217.469H382.992ZM403.275 282H320.834V302H403.275V282ZM320.834 282C318.829 282 316.344 281.645 313.309 280.744L307.617 299.917C312.082 301.242 316.51 302 320.834 302V282ZM313.309 280.744C310.815 280.003 308.444 278.786 306.163 277.003L293.845 292.759C298.009 296.015 302.611 298.43 307.617 299.917L313.309 280.744ZM306.321 277.129C304.3 275.482 302.44 273.247 300.819 270.223L283.193 279.675C285.908 284.738 289.38 289.124 293.687 292.633L306.321 277.129ZM300.899 270.376C299.694 268.032 298.842 264.684 298.842 259.92H278.842C278.842 266.992 280.099 273.663 283.113 279.523L300.899 270.376ZM298.842 259.92V177.479H278.842V259.92H298.842ZM298.842 177.479C298.842 177.165 298.893 176.983 298.951 176.842L280.49 169.15C279.377 171.822 278.842 174.628 278.842 177.479H298.842ZM298.951 176.842C299.096 176.496 299.24 176.302 299.364 176.171L284.824 162.438C282.955 164.416 281.518 166.683 280.49 169.15L298.951 176.842ZM299.165 176.376C299.276 176.265 299.404 176.169 299.631 176.075L291.939 157.613C289.353 158.69 287.021 160.235 285.023 162.234L299.165 176.376ZM299.631 176.075C299.728 176.034 299.933 175.965 300.355 175.965V155.965C297.497 155.965 294.655 156.481 291.939 157.613L299.631 176.075ZM300.355 175.965H403.275V155.965H300.355V175.965ZM393.275 165.965V188.816H413.275V165.965H393.275ZM403.275 178.816H311.693V198.816H403.275V178.816ZM301.693 188.816V259.92H321.693V188.816H301.693ZM301.693 259.92C301.693 264.641 302.975 269.826 306.995 273.846L321.137 259.704C321.304 259.871 321.444 260.051 321.551 260.227C321.658 260.4 321.713 260.535 321.736 260.604C321.779 260.728 321.693 260.553 321.693 259.92H301.693ZM306.995 273.846C311.05 277.901 316.295 279.148 321.01 279.148V259.148C320.327 259.148 320.119 259.057 320.223 259.093C320.282 259.113 320.416 259.166 320.592 259.273C320.771 259.382 320.96 259.526 321.137 259.704L306.995 273.846ZM321.01 279.148H403.275V259.148H321.01V279.148ZM393.275 269.148V292H413.275V269.148H393.275ZM550.404 286.814L541.314 282.648L541.241 282.807L541.174 282.968L550.404 286.814ZM535.551 292.967L532.04 302.33L532.101 302.353L532.164 302.376L535.551 292.967ZM531.771 290.418L539.021 283.53L539.008 283.516L538.994 283.501L531.771 290.418ZM448.275 203.23L455.498 196.314L438.275 178.33V203.23H448.275ZM448.275 292V302H458.275V292H448.275ZM425.424 292H415.424V302H425.424V292ZM427.357 169.393L419.153 163.675L419.135 163.701L419.117 163.727L427.357 169.393ZM432.455 165.086L428.698 155.819L428.496 155.901L428.297 155.991L432.455 165.086ZM439.135 164.471L437.125 174.267L437.246 174.292L437.368 174.313L439.135 164.471ZM445.023 167.635L452.242 160.715L452.23 160.702L452.217 160.689L445.023 167.635ZM528.52 254.734L521.301 261.655L538.52 279.616V254.734H528.52ZM528.52 165.965V155.965H518.52V165.965H528.52ZM551.371 165.965H561.371V155.965H551.371V165.965ZM541.371 282.244C541.371 282.536 541.323 282.627 541.314 282.648L559.495 290.981C560.775 288.189 561.371 285.234 561.371 282.244H541.371ZM541.174 282.968C541.079 283.195 540.983 283.324 540.872 283.435L555.014 297.577C557.013 295.579 558.558 293.246 559.635 290.661L541.174 282.968ZM540.872 283.435C540.863 283.444 540.842 283.464 540.796 283.494C540.747 283.526 540.653 283.582 540.494 283.648L548.186 302.11C550.699 301.063 553.022 299.57 555.014 297.577L540.872 283.435ZM540.494 283.648C540.353 283.707 540.171 283.758 539.857 283.758V303.758C542.708 303.758 545.514 303.223 548.186 302.11L540.494 283.648ZM539.857 283.758C539.723 283.758 539.432 283.736 538.938 283.558L532.164 302.376C534.599 303.252 537.179 303.758 539.857 303.758V283.758ZM539.062 283.604C539.078 283.61 539.096 283.617 539.112 283.626C539.129 283.634 539.139 283.641 539.143 283.643C539.146 283.645 539.138 283.64 539.119 283.624C539.099 283.608 539.067 283.578 539.021 283.53L524.521 297.305C526.596 299.49 529.109 301.231 532.04 302.33L539.062 283.604ZM538.994 283.501L455.498 196.314L441.053 210.147L524.549 297.334L538.994 283.501ZM438.275 203.23V292H458.275V203.23H438.275ZM448.275 282H425.424V302H448.275V282ZM435.424 292V175.721H415.424V292H435.424ZM435.424 175.721C435.424 175.335 435.491 175.213 435.598 175.058L419.117 163.727C416.646 167.322 415.424 171.419 415.424 175.721H435.424ZM435.561 175.111C435.935 174.575 436.263 174.34 436.613 174.181L428.297 155.991C424.545 157.707 421.475 160.343 419.153 163.675L435.561 175.111ZM436.212 174.353C436.558 174.213 436.778 174.196 437.125 174.267L441.144 154.675C436.921 153.808 432.688 154.201 428.698 155.819L436.212 174.353ZM437.368 174.313C437.517 174.34 437.573 174.37 437.588 174.378C437.604 174.387 437.685 174.431 437.829 174.581L452.217 160.689C449.144 157.506 445.293 155.416 440.901 154.628L437.368 174.313ZM437.805 174.555L521.301 261.655L535.738 247.814L452.242 160.715L437.805 174.555ZM538.52 254.734V165.965H518.52V254.734H538.52ZM528.52 175.965H551.371V155.965H528.52V175.965ZM541.371 165.965V282.244H561.371V165.965H541.371ZM697.357 267.127L687.84 264.057L687.825 264.105L687.81 264.153L697.357 267.127ZM670.199 291.121L668.16 281.331L668.139 281.336L668.118 281.34L670.199 291.121ZM574.223 292H564.223V302H574.223V292ZM574.223 269.148V259.148H564.223V269.148H574.223ZM672.572 265.281L665.339 258.376L665.297 258.42L665.256 258.464L672.572 265.281ZM672.484 244.539L665.085 251.266L665.167 251.356L665.251 251.444L672.484 244.539ZM668.09 241.551L664.266 250.791L664.321 250.814L664.376 250.836L668.09 241.551ZM597.865 238.562L594.86 248.1L594.92 248.119L594.98 248.137L597.865 238.562ZM585.912 232.146L579.635 239.931L579.665 239.955L579.696 239.979L585.912 232.146ZM576.771 220.633L567.849 225.149L567.871 225.193L567.894 225.236L576.771 220.633ZM576.771 185.916L567.894 181.313L567.883 181.334L567.872 181.355L576.771 185.916ZM585.912 174.402L592.19 182.186L592.197 182.181L592.204 182.175L585.912 174.402ZM597.865 167.986L600.751 177.561L600.811 177.543L600.87 177.524L597.865 167.986ZM687.602 165.965H697.602V155.965H687.602V165.965ZM687.602 188.816V198.816H697.602V188.816H687.602ZM599.623 192.771L592.312 185.948L592.272 185.992L592.231 186.037L599.623 192.771ZM599.623 213.689L592.307 220.507L592.387 220.593L592.469 220.677L599.623 213.689ZM662.553 217.469L662.791 207.472L662.672 207.469H662.553V217.469ZM670.375 218.523L668.096 228.26L668.195 228.283L668.294 228.304L670.375 218.523ZM678.549 221.336L674.234 230.357L674.272 230.375L674.309 230.393L678.549 221.336ZM686.371 226.258L680.079 234.03L680.136 234.076L680.193 234.121L686.371 226.258ZM692.875 233.289L684.609 238.917L684.65 238.976L684.691 239.035L692.875 233.289ZM689.115 254.91C689.115 258.564 688.64 261.578 687.84 264.057L706.875 270.197C708.418 265.411 709.115 260.28 709.115 254.91H689.115ZM687.81 264.153C686.955 266.899 685.864 269.148 684.609 270.991L701.141 282.247C703.636 278.583 705.534 274.503 706.905 270.101L687.81 264.153ZM684.609 270.991C683.303 272.909 681.83 274.463 680.195 275.717L692.371 291.583C695.776 288.971 698.697 285.837 701.141 282.247L684.609 270.991ZM680.195 275.717C678.232 277.224 676.269 278.404 674.308 279.3L682.614 297.493C686.043 295.928 689.296 293.944 692.371 291.583L680.195 275.717ZM674.308 279.3C672.268 280.231 670.222 280.902 668.16 281.331L672.239 300.911C675.802 300.169 679.263 299.023 682.614 297.493L674.308 279.3ZM668.118 281.34C665.953 281.801 664.047 282 662.377 282V302C665.629 302 668.938 301.613 672.28 300.902L668.118 281.34ZM662.377 282H574.223V302H662.377V282ZM584.223 292V269.148H564.223V292H584.223ZM574.223 279.148H662.377V259.148H574.223V279.148ZM662.377 279.148C668.813 279.148 675.147 277.187 679.888 272.099L665.256 258.464C665.193 258.532 664.73 259.148 662.377 259.148V279.148ZM679.806 272.186C684.411 267.361 686.264 261.229 686.264 254.91H666.264C666.264 257.264 665.655 258.045 665.339 258.376L679.806 272.186ZM686.264 254.91C686.264 251.774 685.782 248.658 684.686 245.667L665.908 252.552C666.1 253.077 666.264 253.828 666.264 254.91H686.264ZM684.686 245.667C683.593 242.686 681.945 239.967 679.718 237.634L665.251 251.444C665.485 251.689 665.712 252.017 665.908 252.552L684.686 245.667ZM679.884 237.812C677.607 235.308 674.844 233.482 671.804 232.266L664.376 250.836C664.851 251.026 665.018 251.192 665.085 251.266L679.884 237.812ZM671.913 232.311C668.837 231.038 665.607 230.496 662.377 230.496V250.496C663.366 250.496 663.945 250.658 664.266 250.791L671.913 232.311ZM662.377 230.496H609.818V250.496H662.377V230.496ZM609.818 230.496C607.284 230.496 604.282 230.052 600.751 228.988L594.98 248.137C600.003 249.651 604.97 250.496 609.818 250.496V230.496ZM600.87 229.025C597.817 228.063 594.912 226.523 592.129 224.314L579.696 239.979C584.295 243.63 589.359 246.367 594.86 248.1L600.87 229.025ZM592.19 224.362C589.78 222.419 587.565 219.725 585.649 216.03L567.894 225.236C570.9 231.033 574.778 236.014 579.635 239.931L592.19 224.362ZM585.694 216.117C584.174 213.115 583.168 208.955 583.168 203.23H563.168C563.168 211.216 564.564 218.658 567.849 225.149L585.694 216.117ZM583.168 203.23C583.168 197.499 584.177 193.392 585.671 190.477L567.872 181.355C564.562 187.815 563.168 195.251 563.168 203.23H583.168ZM585.649 190.519C587.565 186.824 589.78 184.13 592.19 182.186L579.635 166.618C574.778 170.534 570.9 175.516 567.894 181.313L585.649 190.519ZM592.204 182.175C594.952 179.95 597.792 178.453 600.751 177.561L594.98 158.412C589.384 160.098 584.255 162.878 579.62 166.63L592.204 182.175ZM600.87 177.524C604.377 176.419 607.338 175.965 609.818 175.965V155.965C604.916 155.965 599.909 156.858 594.86 158.449L600.87 177.524ZM609.818 175.965H687.602V155.965H609.818V175.965ZM677.602 165.965V188.816H697.602V165.965H677.602ZM687.602 178.816H609.818V198.816H687.602V178.816ZM609.818 178.816C603.317 178.816 597.042 180.881 592.312 185.948L606.934 199.595C607.126 199.389 607.648 198.816 609.818 198.816V178.816ZM592.231 186.037C587.806 190.894 586.02 196.968 586.02 203.23H606.02C606.02 200.821 606.636 199.923 607.015 199.506L592.231 186.037ZM586.02 203.23C586.02 209.501 587.781 215.649 592.307 220.507L606.939 206.872C606.661 206.574 606.02 205.749 606.02 203.23H586.02ZM592.469 220.677C597.23 225.551 603.453 227.469 609.818 227.469V207.469C607.512 207.469 606.938 206.867 606.777 206.702L592.469 220.677ZM609.818 227.469H662.377V207.469H609.818V227.469ZM662.377 227.469H662.553V207.469H662.377V227.469ZM662.315 227.466C663.996 227.506 665.915 227.75 668.096 228.26L672.654 208.787C669.327 208.008 666.032 207.549 662.791 207.472L662.315 227.466ZM668.294 228.304C670.23 228.717 672.208 229.388 674.234 230.357L682.863 212.315C679.499 210.706 676.027 209.502 672.456 208.742L668.294 228.304ZM674.309 230.393C676.3 231.325 678.222 232.527 680.079 234.03L692.663 218.485C689.599 216.005 686.306 213.925 682.788 212.279L674.309 230.393ZM680.193 234.121C681.797 235.381 683.274 236.956 684.609 238.917L701.141 227.661C698.726 224.114 695.867 221.002 692.549 218.395L680.193 234.121ZM684.691 239.035C685.966 240.852 687.058 243.06 687.898 245.755L706.993 239.807C705.606 235.354 703.651 231.234 701.059 227.543L684.691 239.035ZM687.898 245.755C688.657 248.193 689.115 251.207 689.115 254.91H709.115C709.115 249.59 708.46 244.518 706.993 239.807L687.898 245.755ZM821.723 240.496V250.496H831.723V240.496H821.723ZM749.564 240.496H739.564V250.496H749.564V240.496ZM749.564 217.469V207.469H739.564V217.469H749.564ZM821.723 217.469H831.723V207.469H821.723V217.469ZM832.006 292V302H842.006V292H832.006ZM728.734 284.881L722.418 292.633L722.496 292.697L722.575 292.759L728.734 284.881ZM720.736 274.949L711.843 279.523L711.883 279.599L711.923 279.675L720.736 274.949ZM720.824 169.305L713.753 162.234L713.652 162.335L713.554 162.438L720.824 169.305ZM832.006 165.965H842.006V155.965H832.006V165.965ZM832.006 188.816V198.816H842.006V188.816H832.006ZM740.424 188.816V178.816H730.424V188.816H740.424ZM832.006 269.148H842.006V259.148H832.006V269.148ZM821.723 230.496H749.564V250.496H821.723V230.496ZM759.564 240.496V217.469H739.564V240.496H759.564ZM749.564 227.469H821.723V207.469H749.564V227.469ZM811.723 217.469V240.496H831.723V217.469H811.723ZM832.006 282H749.564V302H832.006V282ZM749.564 282C747.56 282 745.074 281.645 742.039 280.744L736.347 299.917C740.812 301.242 745.241 302 749.564 302V282ZM742.039 280.744C739.546 280.003 737.175 278.786 734.894 277.003L722.575 292.759C726.74 296.015 731.341 298.43 736.347 299.917L742.039 280.744ZM735.051 277.129C733.03 275.482 731.17 273.247 729.549 270.223L711.923 279.675C714.638 284.738 718.11 289.124 722.418 292.633L735.051 277.129ZM729.629 270.376C728.424 268.032 727.572 264.684 727.572 259.92H707.572C707.572 266.992 708.83 273.663 711.843 279.523L729.629 270.376ZM727.572 259.92V177.479H707.572V259.92H727.572ZM727.572 177.479C727.572 177.165 727.623 176.983 727.682 176.842L709.22 169.15C708.107 171.822 707.572 174.628 707.572 177.479H727.572ZM727.682 176.842C727.826 176.496 727.97 176.302 728.094 176.171L713.554 162.438C711.686 164.416 710.248 166.683 709.22 169.15L727.682 176.842ZM727.895 176.376C728.006 176.265 728.135 176.169 728.362 176.075L720.669 157.613C718.084 158.69 715.751 160.235 713.753 162.234L727.895 176.376ZM728.362 176.075C728.458 176.034 728.663 175.965 729.086 175.965V155.965C726.228 155.965 723.386 156.481 720.669 157.613L728.362 176.075ZM729.086 175.965H832.006V155.965H729.086V175.965ZM822.006 165.965V188.816H842.006V165.965H822.006ZM832.006 178.816H740.424V198.816H832.006V178.816ZM730.424 188.816V259.92H750.424V188.816H730.424ZM730.424 259.92C730.424 264.641 731.706 269.826 735.726 273.846L749.868 259.704C750.035 259.871 750.174 260.051 750.282 260.227C750.388 260.4 750.443 260.535 750.467 260.604C750.51 260.728 750.424 260.553 750.424 259.92H730.424ZM735.726 273.846C739.78 277.901 745.025 279.148 749.74 279.148V259.148C749.058 259.148 748.85 259.057 748.953 259.093C749.013 259.113 749.146 259.166 749.322 259.273C749.501 259.382 749.69 259.526 749.868 259.704L735.726 273.846ZM749.74 279.148H832.006V259.148H749.74V279.148ZM822.006 269.148V292H842.006V269.148H822.006ZM876.83 291.297L874.686 301.064L874.822 301.094L874.959 301.12L876.83 291.297ZM869.623 288.924L865.519 298.043L865.561 298.062L865.603 298.08L869.623 288.924ZM862.855 284.881L856.687 292.751L856.753 292.804L856.821 292.855L862.855 284.881ZM857.055 278.816L848.797 284.456L848.876 284.572L848.959 284.686L857.055 278.816ZM853.1 270.555L843.561 273.558L843.569 273.583L843.577 273.609L853.1 270.555ZM852.309 191.277L842.531 189.182L842.511 189.272L842.494 189.362L852.309 191.277ZM854.682 184.07L863.801 188.174L863.82 188.132L863.838 188.09L854.682 184.07ZM864.877 171.502L870.612 179.694L870.632 179.68L870.652 179.666L864.877 171.502ZM976.586 165.965H986.586V155.965H976.586V165.965ZM976.586 188.816V198.816H986.586V188.816H976.586ZM876.83 266.775L869.632 273.717L869.758 273.848L869.889 273.974L876.83 266.775ZM954.789 269.148V279.148H964.789V269.148H954.789ZM954.789 240.496H964.789V230.496H954.789V240.496ZM893.969 240.496H883.969V250.496H893.969V240.496ZM893.969 217.469V207.469H883.969V217.469H893.969ZM970.697 218.436L966.531 227.526L966.69 227.599L966.851 227.666L970.697 218.436ZM974.301 220.896L967.031 227.763L967.129 227.867L967.23 227.968L974.301 220.896ZM976.762 224.588L967.531 228.434L967.56 228.505L967.591 228.575L976.762 224.588ZM967.641 280.486C967.641 280.909 967.571 281.114 967.531 281.21L985.992 288.903C987.124 286.187 987.641 283.345 987.641 280.486H967.641ZM967.531 281.21C967.436 281.437 967.341 281.566 967.23 281.677L981.372 295.819C983.37 293.821 984.915 291.488 985.992 288.903L967.531 281.21ZM967.23 281.677C967.221 281.686 967.2 281.706 967.153 281.737C967.105 281.768 967.011 281.824 966.851 281.89L974.543 300.352C977.056 299.305 979.379 297.812 981.372 295.819L967.23 281.677ZM966.851 281.89C966.755 281.93 966.55 282 966.127 282V302C968.985 302 971.827 301.484 974.543 300.352L966.851 281.89ZM966.127 282H883.686V302H966.127V282ZM883.686 282C882.308 282 880.656 281.846 878.701 281.473L874.959 301.12C877.926 301.685 880.845 302 883.686 302V282ZM878.974 281.529C877.257 281.152 875.482 280.575 873.643 279.767L865.603 298.08C868.569 299.382 871.599 300.387 874.686 301.064L878.974 281.529ZM873.727 279.805C872.106 279.075 870.494 278.121 868.89 276.907L856.821 292.855C859.553 294.922 862.453 296.663 865.519 298.043L873.727 279.805ZM869.024 277.01C867.625 275.914 866.332 274.576 865.151 272.947L848.959 284.686C851.176 287.745 853.75 290.45 856.687 292.751L869.024 277.01ZM865.313 273.177C864.277 271.66 863.358 269.797 862.622 267.5L843.577 273.609C844.833 277.523 846.551 281.168 848.797 284.456L865.313 273.177ZM862.638 267.552C861.998 265.519 861.605 263.009 861.605 259.92H841.605C841.605 264.683 842.209 269.263 843.561 273.558L862.638 267.552ZM861.605 259.92V198.045H841.605V259.92H861.605ZM861.605 198.045C861.605 196.671 861.759 195.062 862.123 193.192L842.494 189.362C841.921 192.298 841.605 195.2 841.605 198.045H861.605ZM862.087 193.373C862.463 191.617 863.03 189.887 863.801 188.174L845.562 179.967C844.224 182.941 843.209 186.016 842.531 189.182L862.087 193.373ZM863.838 188.09C864.539 186.493 865.475 184.925 866.683 183.384L850.942 171.046C848.752 173.841 846.933 176.843 845.525 180.05L863.838 188.09ZM866.683 183.384C867.751 182.021 869.044 180.791 870.612 179.694L859.142 163.31C856.022 165.494 853.273 168.072 850.942 171.046L866.683 183.384ZM870.652 179.666C872.137 178.616 873.954 177.699 876.193 176.981L870.084 157.937C866.112 159.211 862.422 160.99 859.102 163.338L870.652 179.666ZM876.193 176.981C878.134 176.359 880.592 175.965 883.686 175.965V155.965C878.927 155.965 874.354 156.567 870.084 157.937L876.193 176.981ZM883.686 175.965H976.586V155.965H883.686V175.965ZM966.586 165.965V188.816H986.586V165.965H966.586ZM976.586 178.816H883.686V198.816H976.586V178.816ZM883.686 178.816C878.964 178.816 873.779 180.098 869.759 184.118L883.901 198.261C883.734 198.427 883.554 198.567 883.379 198.674C883.205 198.781 883.07 198.836 883.002 198.86C882.877 198.903 883.052 198.816 883.686 198.816V178.816ZM869.759 184.118C865.672 188.205 864.457 193.511 864.457 198.221H884.457C884.457 197.49 884.553 197.249 884.525 197.332C884.508 197.382 884.458 197.513 884.35 197.692C884.24 197.874 884.09 198.071 883.901 198.261L869.759 184.118ZM864.457 198.221V259.92H884.457V198.221H864.457ZM864.457 259.92C864.457 264.67 865.781 269.724 869.632 273.717L884.029 259.834C884.154 259.964 884.263 260.108 884.35 260.251C884.436 260.393 884.481 260.504 884.5 260.56C884.537 260.665 884.457 260.499 884.457 259.92H864.457ZM869.889 273.974C873.882 277.824 878.936 279.148 883.686 279.148V259.148C883.106 259.148 882.94 259.069 883.046 259.105C883.102 259.125 883.213 259.17 883.355 259.256C883.498 259.342 883.641 259.451 883.771 259.577L869.889 273.974ZM883.686 279.148H954.789V259.148H883.686V279.148ZM964.789 269.148V240.496H944.789V269.148H964.789ZM954.789 230.496H893.969V250.496H954.789V230.496ZM903.969 240.496V217.469H883.969V240.496H903.969ZM893.969 227.469H966.127V207.469H893.969V227.469ZM966.127 227.469C966.418 227.469 966.51 227.517 966.531 227.526L974.864 209.345C972.072 208.065 969.117 207.469 966.127 207.469V227.469ZM966.851 227.666C966.955 227.709 967.002 227.74 967.013 227.748C967.024 227.755 967.026 227.758 967.031 227.763L981.571 214.03C979.564 211.905 977.178 210.302 974.543 209.205L966.851 227.666ZM967.23 227.968C967.341 228.079 967.436 228.207 967.531 228.434L985.992 220.742C984.915 218.156 983.37 215.824 981.372 213.825L967.23 227.968ZM967.591 228.575C967.596 228.587 967.605 228.61 967.615 228.658C967.625 228.708 967.641 228.811 967.641 228.982H987.641C987.641 226.135 987.106 223.3 985.932 220.601L967.591 228.575ZM967.641 228.982V280.486H987.641V228.982H967.641ZM1120.2 233.201L1112.02 227.446L1112.01 227.462L1112 227.477L1120.2 233.201ZM1103.59 246.736L1107.71 255.846L1107.75 255.829L1107.79 255.811L1103.59 246.736ZM1094.1 249.812L1092.13 240.007L1092.12 240.01L1092.1 240.014L1094.1 249.812ZM1085.13 250.779V240.779H1058.25L1078.59 258.347L1085.13 250.779ZM1132.86 292V302H1159.73L1139.39 284.432L1132.86 292ZM1097.52 292L1090.98 299.562L1093.8 302H1097.52V292ZM1049.89 250.779L1056.43 243.217L1053.61 240.779H1049.89V250.779ZM1033.45 250.779H1023.45V260.779H1033.45V250.779ZM1033.45 227.928V217.928H1023.45V227.928H1033.45ZM1085.13 227.928V237.928H1085.54L1085.94 237.895L1085.13 227.928ZM1092.95 226.17L1096.67 235.455L1096.73 235.431L1096.78 235.407L1092.95 226.17ZM1099.11 222.215L1092.28 214.904L1092.22 214.962L1092.16 215.021L1099.11 222.215ZM1103.15 216.326L1112.4 220.122L1112.42 220.081L1112.43 220.04L1103.15 216.326ZM1104.03 191.014L1094.8 194.86L1095 195.343L1095.25 195.802L1104.03 191.014ZM1102.8 189.52L1096.8 197.52L1097.34 197.929L1097.94 198.261L1102.8 189.52ZM1101.21 188.904L1100.11 198.843L1100.17 198.849L1100.22 198.855L1101.21 188.904ZM1024.31 188.816V178.816H1014.31V188.816H1024.31ZM1024.31 292V302H1034.31V292H1024.31ZM1001.46 292H991.459V302H1001.46V292ZM1004.71 169.305L997.64 162.234L997.539 162.335L997.441 162.438L1004.71 169.305ZM1112.64 168.777L1107.93 177.601L1107.99 177.632L1108.05 177.662L1112.64 168.777ZM1121.17 175.721L1113.25 181.826L1113.32 181.918L1113.39 182.008L1121.17 175.721ZM1125.91 184.686L1116.31 187.479L1116.33 187.559L1116.36 187.639L1125.91 184.686ZM1117.41 208.328C1117.41 212.735 1116.86 216.354 1115.93 219.304L1135.01 225.301C1136.66 220.048 1137.41 214.351 1137.41 208.328H1117.41ZM1115.93 219.304C1114.92 222.531 1113.59 225.213 1112.02 227.446L1128.38 238.956C1131.26 234.861 1133.45 230.278 1135.01 225.301L1115.93 219.304ZM1112 227.477C1110.38 229.791 1108.55 231.714 1106.51 233.297L1118.77 249.101C1122.47 246.232 1125.68 242.822 1128.4 238.925L1112 227.477ZM1106.51 233.297C1104.21 235.081 1101.84 236.527 1099.39 237.662L1107.79 255.811C1111.67 254.016 1115.33 251.771 1118.77 249.101L1106.51 233.297ZM1099.46 237.627C1097.02 238.731 1094.58 239.517 1092.13 240.007L1096.06 259.618C1100.05 258.819 1103.94 257.554 1107.71 255.846L1099.46 237.627ZM1092.1 240.014C1089.5 240.544 1087.18 240.779 1085.13 240.779V260.779C1088.7 260.779 1092.37 260.37 1096.09 259.611L1092.1 240.014ZM1078.59 258.347L1126.32 299.568L1139.39 284.432L1091.67 243.211L1078.59 258.347ZM1132.86 282H1097.52V302H1132.86V282ZM1104.07 284.438L1056.43 243.217L1043.34 258.341L1090.98 299.562L1104.07 284.438ZM1049.89 240.779H1033.45V260.779H1049.89V240.779ZM1043.45 250.779V227.928H1023.45V250.779H1043.45ZM1033.45 237.928H1085.13V217.928H1033.45V237.928ZM1085.94 237.895C1089.67 237.59 1093.28 236.811 1096.67 235.455L1089.24 216.885C1087.94 217.404 1086.33 217.797 1084.32 217.961L1085.94 237.895ZM1096.78 235.407C1100.23 233.98 1103.36 232.004 1106.05 229.409L1092.16 215.021C1091.45 215.707 1090.48 216.368 1089.12 216.933L1096.78 235.407ZM1105.93 229.525C1108.77 226.875 1110.93 223.702 1112.4 220.122L1093.9 212.531C1093.49 213.52 1092.96 214.274 1092.28 214.904L1105.93 229.525ZM1112.43 220.04C1113.92 216.319 1114.55 212.359 1114.55 208.328H1094.55C1094.55 210.274 1094.25 211.645 1093.86 212.612L1112.43 220.04ZM1114.55 208.328V193.914H1094.55V208.328H1114.55ZM1114.55 193.914C1114.55 192.043 1114.36 189.066 1112.81 186.225L1095.25 195.802C1094.77 194.931 1094.63 194.245 1094.58 194.011C1094.54 193.755 1094.55 193.696 1094.55 193.914H1114.55ZM1113.26 187.168C1112.33 184.943 1110.62 182.424 1107.65 180.778L1097.94 198.261C1096.03 197.201 1095.14 195.679 1094.8 194.86L1113.26 187.168ZM1108.8 181.52C1106.86 180.068 1104.6 179.193 1102.21 178.954L1100.22 198.855C1099 198.733 1097.8 198.268 1096.8 197.52L1108.8 181.52ZM1102.32 178.965C1101.47 178.871 1100.6 178.816 1099.72 178.816V198.816C1099.78 198.816 1099.9 198.82 1100.11 198.843L1102.32 178.965ZM1099.72 178.816H1024.31V198.816H1099.72V178.816ZM1014.31 188.816V292H1034.31V188.816H1014.31ZM1024.31 282H1001.46V302H1024.31V282ZM1011.46 292V177.479H991.459V292H1011.46ZM1011.46 177.479C1011.46 177.165 1011.51 176.983 1011.57 176.842L993.107 169.15C991.994 171.822 991.459 174.628 991.459 177.479H1011.46ZM1011.57 176.842C1011.71 176.496 1011.86 176.302 1011.98 176.171L997.441 162.438C995.573 164.416 994.135 166.683 993.107 169.15L1011.57 176.842ZM1011.78 176.376C1011.89 176.265 1012.02 176.169 1012.25 176.075L1004.56 157.613C1001.97 158.69 999.638 160.235 997.64 162.234L1011.78 176.376ZM1012.25 176.075C1012.34 176.034 1012.55 175.965 1012.97 175.965V155.965C1010.11 155.965 1007.27 156.481 1004.56 157.613L1012.25 176.075ZM1012.97 175.965H1099.72V155.965H1012.97V175.965ZM1099.72 175.965C1103.62 175.965 1106.22 176.684 1107.93 177.601L1117.35 159.954C1112.03 157.12 1106.01 155.965 1099.72 155.965V175.965ZM1108.05 177.662C1110.42 178.884 1112.07 180.299 1113.25 181.826L1129.09 169.616C1125.93 165.518 1121.9 162.304 1117.23 159.893L1108.05 177.662ZM1113.39 182.008C1114.83 183.788 1115.76 185.6 1116.31 187.479L1135.51 181.892C1134.19 177.326 1131.96 173.162 1128.94 169.433L1113.39 182.008ZM1116.36 187.639C1117.12 190.089 1117.41 192.103 1117.41 193.738H1137.41C1137.41 189.748 1136.7 185.727 1135.47 181.732L1116.36 187.639ZM1117.41 193.738V208.328H1137.41V193.738H1117.41ZM1173.37 292V302H1183.37V292H1173.37ZM1150.52 292H1140.52V302H1150.52V292ZM1150.52 165.965V155.965H1140.52V165.965H1150.52ZM1173.37 165.965H1183.37V155.965H1173.37V165.965ZM1173.37 282H1150.52V302H1173.37V282ZM1160.52 292V165.965H1140.52V292H1160.52ZM1150.52 175.965H1173.37V155.965H1150.52V175.965ZM1163.37 165.965V292H1183.37V165.965H1163.37ZM1321.82 260.447L1312.59 256.589L1312.58 256.625L1312.56 256.661L1321.82 260.447ZM1310.83 277.146L1317.86 284.262L1317.88 284.24L1317.91 284.218L1310.83 277.146ZM1203.17 288.748L1195.9 295.614L1196.09 295.822L1196.3 296.018L1203.17 288.748ZM1203.17 169.305L1196.1 162.234L1196 162.335L1195.9 162.438L1203.17 169.305ZM1310.83 180.906L1303.76 187.977L1303.79 188L1303.81 188.022L1310.83 180.906ZM1321.82 197.605L1312.55 201.363L1312.57 201.413L1312.59 201.464L1321.82 197.605ZM1300.81 206.482L1291.47 210.042L1291.49 210.107L1291.52 210.171L1300.81 206.482ZM1294.75 197.078L1287.68 204.149L1287.72 204.189L1287.76 204.228L1294.75 197.078ZM1285.26 191.014L1281.52 200.288L1281.61 200.324L1281.7 200.359L1285.26 191.014ZM1222.77 188.816V178.816H1212.77V188.816H1222.77ZM1222.77 269.148H1212.77V279.148H1222.77V269.148ZM1285.26 267.039L1288.87 276.365L1288.91 276.35L1288.95 276.334L1285.26 267.039ZM1294.75 260.975L1301.74 268.125L1301.78 268.085L1301.82 268.046L1294.75 260.975ZM1300.81 251.57L1291.52 247.882L1291.5 247.921L1291.49 247.96L1300.81 251.57ZM1315.86 239.266C1315.86 245.748 1314.73 251.482 1312.59 256.589L1331.05 264.305C1334.3 256.522 1335.86 248.135 1335.86 239.266H1315.86ZM1312.56 256.661C1310.41 261.94 1307.46 266.374 1303.76 270.075L1317.91 284.218C1323.58 278.544 1327.96 271.845 1331.08 264.234L1312.56 256.661ZM1303.81 270.031C1300.1 273.69 1295.65 276.619 1290.35 278.789L1297.92 297.3C1305.51 294.198 1312.19 289.861 1317.86 284.262L1303.81 270.031ZM1290.35 278.789C1285.2 280.894 1279.5 282 1273.13 282V302C1281.87 302 1290.17 300.469 1297.92 297.3L1290.35 278.789ZM1273.13 282H1211.43V302H1273.13V282ZM1211.43 282C1211.01 282 1210.8 281.93 1210.71 281.89L1203.01 300.352C1205.73 301.484 1208.57 302 1211.43 302V282ZM1210.71 281.89C1210.36 281.746 1210.17 281.602 1210.03 281.478L1196.3 296.018C1198.28 297.886 1200.55 299.324 1203.01 300.352L1210.71 281.89ZM1210.44 281.882C1210.31 281.75 1210.17 281.556 1210.03 281.21L1191.56 288.903C1192.59 291.369 1194.03 293.636 1195.9 295.614L1210.44 281.882ZM1210.03 281.21C1209.99 281.114 1209.92 280.909 1209.92 280.486H1189.92C1189.92 283.345 1190.43 286.187 1191.56 288.903L1210.03 281.21ZM1209.92 280.486V177.479H1189.92V280.486H1209.92ZM1209.92 177.479C1209.92 177.165 1209.97 176.983 1210.03 176.842L1191.56 169.15C1190.45 171.822 1189.92 174.628 1189.92 177.479H1209.92ZM1210.03 176.842C1210.17 176.496 1210.31 176.302 1210.44 176.171L1195.9 162.438C1194.03 164.416 1192.59 166.683 1191.56 169.15L1210.03 176.842ZM1210.24 176.376C1210.35 176.265 1210.48 176.169 1210.71 176.075L1203.01 157.613C1200.43 158.69 1198.1 160.235 1196.1 162.234L1210.24 176.376ZM1210.71 176.075C1210.8 176.034 1211.01 175.965 1211.43 175.965V155.965C1208.57 155.965 1205.73 156.481 1203.01 157.613L1210.71 176.075ZM1211.43 175.965H1273.13V155.965H1211.43V175.965ZM1273.13 175.965C1279.5 175.965 1285.2 177.071 1290.35 179.175L1297.92 160.664C1290.17 157.495 1281.87 155.965 1273.13 155.965V175.965ZM1290.35 179.175C1295.63 181.335 1300.06 184.276 1303.76 187.977L1317.91 173.835C1312.23 168.162 1305.53 163.778 1297.92 160.664L1290.35 179.175ZM1303.81 188.022C1307.47 191.634 1310.39 196.035 1312.55 201.363L1331.09 193.848C1327.97 186.168 1323.58 179.437 1317.86 173.791L1303.81 188.022ZM1312.59 201.464C1314.73 206.58 1315.86 212.286 1315.86 218.699H1335.86C1335.86 209.878 1334.3 201.521 1331.05 193.747L1312.59 201.464ZM1315.86 218.699V239.266H1335.86V218.699H1315.86ZM1313.01 218.699C1313.01 213.136 1312.09 207.793 1310.11 202.794L1291.52 210.171C1292.47 212.554 1293.01 215.356 1293.01 218.699H1313.01ZM1310.16 202.922C1308.27 197.976 1305.49 193.589 1301.74 189.928L1287.76 204.228C1289.29 205.723 1290.54 207.606 1291.47 210.042L1310.16 202.922ZM1301.82 190.007C1298.13 186.315 1293.75 183.547 1288.82 181.669L1281.7 200.359C1284.15 201.293 1286.1 202.568 1287.68 204.149L1301.82 190.007ZM1289 181.739C1284.02 179.734 1278.69 178.816 1273.13 178.816V198.816C1276.47 198.816 1279.23 199.364 1281.52 200.288L1289 181.739ZM1273.13 178.816H1222.77V198.816H1273.13V178.816ZM1212.77 188.816V269.148H1232.77V188.816H1212.77ZM1222.77 279.148H1273.13V259.148H1222.77V279.148ZM1273.13 279.148C1278.64 279.148 1283.93 278.276 1288.87 276.365L1281.65 257.713C1279.32 258.615 1276.52 259.148 1273.13 259.148V279.148ZM1288.95 276.334C1293.77 274.418 1298.09 271.699 1301.74 268.125L1287.76 253.825C1286.14 255.406 1284.12 256.73 1281.57 257.744L1288.95 276.334ZM1301.82 268.046C1305.49 264.381 1308.25 260.052 1310.14 255.18L1291.49 247.96C1290.56 250.354 1289.29 252.295 1287.68 253.904L1301.82 268.046ZM1310.11 255.259C1312.1 250.245 1313.01 244.87 1313.01 239.266H1293.01C1293.01 242.685 1292.46 245.513 1291.52 247.882L1310.11 255.259ZM1313.01 239.266V218.699H1293.01V239.266H1313.01Z" fill="white" mask="url(#path-6-outside-1_38_38)"/>
</svg>
